<svg width="89" height="90" viewBox="0 0 89 90" fill="none" xmlns="http://www.w3.org/2000/svg">
<g clip-path="url(#clip0)">
<path d="M66.6054 48.2544C66.6054 52.3841 66.6054 55.661 62.1172 55.9303L51.705 56.4689C47.8452 56.4689 47.2167 54.2244 46.4986 50.9475V50.0947H44.1646V50.9475C43.4016 54.2244 42.818 56.6934 38.9582 56.4689L28.501 55.9303C24.0129 55.7059 23.6987 52.4291 24.0129 48.3892C20.7365 47.8056 17.595 47.1322 14.6777 46.3242C14.6777 46.818 14.6777 47.3566 14.6777 47.8952C14.6777 48.4339 14.6777 48.5687 14.6777 48.9278C15.0649 50.9214 15.6359 52.8748 16.3833 54.7632C17.5328 57.4596 19.1423 59.9354 21.1404 62.0799C25.0684 66.7943 30.3223 70.2193 36.2205 71.9103L37.8811 72.3591L39.2278 72.6284L40.3498 72.8528H41.2023H42.6837H43.8951H46.4536C46.6651 72.8419 46.8763 72.8796 47.0711 72.9627C47.2658 73.0457 47.4388 73.1721 47.5773 73.3323C47.7158 73.4924 47.8163 73.682 47.8704 73.8868C47.9245 74.0915 47.9309 74.3059 47.8896 74.5136C47.1014 79.2119 45.2435 83.666 42.4591 87.5312C42.2774 87.7765 42.1813 88.0747 42.1857 88.38C42.1902 88.6852 42.295 88.9804 42.4838 89.2202C42.6726 89.4601 42.9349 89.6314 43.2305 89.7074C43.5261 89.7834 43.8387 89.7599 44.1197 89.6408C52.8466 85.9519 60.3927 79.9358 65.9331 72.2492C71.4736 64.5627 74.7956 55.5016 75.5367 46.0549C72.6038 46.9572 69.6219 47.6915 66.6054 48.2544Z" fill="white"/>
<path d="M47.3068 17.6409C54.8524 17.5194 62.3682 16.6625 69.7475 15.0823L66.4263 2.82798C66.0758 1.9408 65.4517 1.18825 64.6447 0.679758C63.8377 0.171266 62.8897 -0.0667414 61.9382 3.06191e-05C56.457 2.44058 50.524 3.70168 44.5242 3.70168C38.5243 3.70168 32.5914 2.44058 27.1101 3.06191e-05C26.1586 -0.0667414 25.2107 0.171266 24.4036 0.679758C23.5966 1.18825 22.9725 1.9408 22.622 2.82798L19.3457 15.0823C27.6915 16.8888 36.2099 17.777 44.7488 17.7308L47.3068 17.6409Z" fill="#76F595"/>
<path d="M71.3632 20.5589C69.3884 21.0077 67.3682 21.4118 65.2139 21.726H64.9C60.5427 22.4105 56.1535 22.875 51.7495 23.1175C49.4156 23.1175 47.0371 23.1175 44.6135 23.1175C42.1899 23.1175 39.8562 23.1175 37.5224 23.1175C30.8937 22.7709 24.3043 21.8851 17.8193 20.469C6.55408 23.252 0.135742 27.5165 0.135742 30.9729C0.135742 36.5838 17.1011 44.4392 44.6584 44.4392C72.2156 44.4392 89.1361 36.5838 89.1361 30.9729C89.0463 27.6063 82.6285 23.3419 71.3632 20.5589Z" fill="#76F595"/>
</g>
<defs>
<clipPath id="clip0">
<rect width="89" height="90" fill="white"/>
</clipPath>
</defs>
</svg>
