<svg xmlns="http://www.w3.org/2000/svg" viewBox="0 0 56.99 67.2">
  <g id="Layer_2" data-name="Layer 2">
    <g id="Layer_2-2" data-name="Layer 2">
      <g>
        <rect x="15.56" y="51.1" width="1.96" height="5.78" style="fill: #292832"/>
        <rect x="9.64" y="51.1" width="1.96" height="5.78" style="fill: #292832"/>
        <rect x="25.2" y="51.1" width="1.96" height="5.78" style="fill: #292832"/>
        <rect x="55.03" y="51.1" width="1.96" height="5.78" style="fill: #292832"/>
        <path d="M33.76,56.88a3.19,3.19,0,0,1-.47-.31,1.93,1.93,0,0,1-.72-1.6c0-1.42,1.35-2.41,3.45-2.41s3.78,1.11,3.78,3.52h2c0-3.61-2.28-5.32-5.72-5.32s-5.43,1.74-5.43,4.35a3.76,3.76,0,0,0,.4,1.77Z" style="fill: #292832"/>
        <rect x="45.39" y="51.1" width="1.96" height="5.78" style="fill: #292832"/>
        <rect y="51.1" width="1.96" height="5.78" style="fill: #292832"/>
        <rect x="45.39" y="60.64" width="1.96" height="6.23" style="fill: #292832"/>
        <path d="M37.93,60.64a6.07,6.07,0,0,1,1.06.62,1.85,1.85,0,0,1,.81,1.6c0,1.51-1.26,2.54-3.51,2.54-1.9,0-4.22-.88-4.22-3.65H30.12a4.87,4.87,0,0,0,1.75,4.06A6.79,6.79,0,0,0,36.2,67.2c3.62,0,5.67-1.82,5.67-4.43a3.37,3.37,0,0,0-.68-2.13Z" style="fill: #292832"/>
        <rect x="55.03" y="60.64" width="1.96" height="6.23" style="fill: #292832"/>
        <path d="M25.2,60.64V61.8c0,2.23-1.42,3.6-3.83,3.6S17.52,64,17.52,61.8V60.64h-2v1.09a5.18,5.18,0,0,0,1.6,4,6,6,0,0,0,4.21,1.44,6,6,0,0,0,4.19-1.44,5.2,5.2,0,0,0,1.6-4V60.64Z" style="fill: #292832"/>
        <rect y="60.64" width="1.96" height="6.23" style="fill: #292832"/>
        <rect x="9.64" y="60.64" width="1.96" height="6.23" style="fill: #292832"/>
      </g>
      <g>
        <rect x="6.94" width="45" height="45" rx="3.6" style="fill: #292832"/>
        <path d="M37.17,24c.07,1.46.06,2.64-1.65,2.73l-3.71.2c-1.39.07-1.61-.8-1.87-2l-.06-.3H29L29,25c-.26,1.18-.48,2.05-1.86,2l-3.72-.2c-1.69-.09-1.72-1.25-1.65-2.69-1.17-.2-2.29-.45-3.34-.74l.09.56c0,.13.05.25.07.38a13.06,13.06,0,0,0,.61,2.07A9,9,0,0,0,20.89,29a11,11,0,0,0,5.36,3.5l.6.15.49.11.39.08.31,0,.53,0,.43,0h.91a.51.51,0,0,1,.51.59,11.13,11.13,0,0,1-1.93,4.64.5.5,0,0,0,.59.76,18.44,18.44,0,0,0,11.2-15.54C39.3,23.59,38.26,23.83,37.17,24Z" style="fill: #fff"/>
        <g>
          <path d="M30.33,13.1h0a42.14,42.14,0,0,0,8.06-.91L37.22,7.8a1.66,1.66,0,0,0-1.67-1h0a15.27,15.27,0,0,1-12.42,0,1.66,1.66,0,0,0-1.67,1l-1.17,4.38a41.51,41.51,0,0,0,9,.94Z" style="fill: #76f595"/>
          <path d="M38.91,14.13v0h0c-.7.16-1.43.3-2.19.43h-.12a45.37,45.37,0,0,1-4.68.49c-.84,0-1.69.06-2.56.06s-1.69,0-2.53-.06a41.09,41.09,0,0,1-7-.94h0c-4,1-6.3,2.52-6.3,3.75,0,2,6,4.8,15.87,4.8s15.88-2.79,15.88-4.8C45.21,16.65,42.93,15.13,38.91,14.13Z" style="fill: #76f595"/>
        </g>
      </g>
    </g>
  </g>
</svg>
