<?xml version="1.0"?>
<svg xmlns="http://www.w3.org/2000/svg" xmlns:xlink="http://www.w3.org/1999/xlink" xmlns:svgjs="http://svgjs.com/svgjs" version="1.1" width="512" height="512" x="0" y="0" viewBox="0 0 600 600.09989" style="enable-background:new 0 0 512 512" xml:space="preserve" class=""><g>
<g xmlns="http://www.w3.org/2000/svg" id="surface1">
<path d="M 547.292969 336 C 568.359375 304.640625 579.757812 267.777344 580.050781 230 C 580.050781 103.179688 449.960938 0 290.050781 0 C 130.136719 0 0.0507812 103.179688 0.0507812 230 C 0.0507812 305.601562 46.269531 375.421875 124.050781 418.5 C 113.59375 438.851562 99.726562 457.265625 83.046875 472.929688 L 33.046875 522.929688 C 30.203125 525.78125 29.34375 530.0625 30.871094 533.792969 C 32.398438 537.523438 36.015625 539.96875 40.050781 540 C 41.125 539.996094 42.1875 539.824219 43.210938 539.492188 C 49 537.558594 181.492188 493.082031 221.414062 453.40625 C 244.03125 457.765625 267.011719 459.96875 290.050781 460 C 293.570312 460 297.050781 459.789062 300.539062 459.679688 C 304.859375 527.710938 354.539062 584.257812 421.441406 597.3125 C 488.347656 610.367188 555.632812 576.640625 585.210938 515.226562 C 614.792969 453.808594 599.210938 380.171875 547.292969 336 Z M 228.152344 434.25 C 227.46875 433.242188 226.609375 432.375 225.613281 431.679688 C 223.40625 430.203125 220.699219 429.664062 218.097656 430.179688 C 215.496094 430.699219 213.203125 432.230469 211.730469 434.4375 C 211.296875 435.019531 210.8125 435.5625 210.28125 436.058594 C 190.691406 458.75 126.738281 486.898438 78.867188 505.320312 L 97.121094 487.070312 C 118.28125 467.695312 135 443.964844 146.121094 417.507812 C 146.21875 417.074219 146.285156 416.636719 146.320312 416.191406 C 146.484375 415.53125 146.582031 414.863281 146.621094 414.1875 C 146.601562 413.558594 146.53125 412.933594 146.398438 412.320312 C 146.304688 411.695312 146.148438 411.074219 145.929688 410.476562 C 145.683594 409.898438 145.382812 409.339844 145.03125 408.820312 C 144.703125 408.277344 144.328125 407.765625 143.914062 407.289062 C 143.4375 406.828125 142.921875 406.410156 142.371094 406.050781 C 142.03125 405.746094 141.675781 405.460938 141.300781 405.199219 C 65.390625 366.089844 20.050781 300.601562 20.050781 230 C 20.050781 114.199219 141.167969 20 290.050781 20 C 438.933594 20 560.050781 114.199219 560.050781 230 C 559.765625 263.480469 549.757812 296.164062 531.242188 324.058594 C 486.726562 295.210938 430.261719 292.089844 382.832031 315.855469 C 335.40625 339.617188 304.109375 386.71875 300.566406 439.648438 C 276.304688 440.425781 252.027344 438.617188 228.152344 434.25 Z M 450.050781 580 C 378.253906 580 320.050781 521.796875 320.050781 450 C 320.050781 378.203125 378.253906 320 450.050781 320 C 521.847656 320 580.050781 378.203125 580.050781 450 C 579.96875 521.761719 521.8125 579.917969 450.050781 580 Z M 450.050781 580 " style="" fill="#ffffff" data-original="#000000" class=""/>
<path d="M 460.050781 440 L 460.050781 350 L 440.050781 350 L 440.050781 440 L 350.050781 440 L 350.050781 460 L 440.050781 460 L 440.050781 540 L 460.050781 540 L 460.050781 460 L 550.050781 460 L 550.050781 440 Z M 460.050781 440 " style="" fill="#ffffff" data-original="#000000" class=""/>
<path d="M 340.050781 220 C 340.050781 192.386719 317.664062 170 290.050781 170 C 262.4375 170 240.050781 192.386719 240.050781 220 C 240.050781 247.613281 262.4375 270 290.050781 270 C 317.652344 269.964844 340.015625 247.601562 340.050781 220 Z M 260.050781 220 C 260.050781 203.433594 273.484375 190 290.050781 190 C 306.617188 190 320.050781 203.433594 320.050781 220 C 320.050781 236.566406 306.617188 250 290.050781 250 C 273.484375 250 260.050781 236.566406 260.050781 220 Z M 260.050781 220 " style="" fill="#ffffff" data-original="#000000" class=""/>
<path d="M 410.050781 270 C 437.664062 270 460.050781 247.613281 460.050781 220 C 460.050781 192.386719 437.664062 170 410.050781 170 C 382.4375 170 360.050781 192.386719 360.050781 220 C 360.085938 247.601562 382.449219 269.964844 410.050781 270 Z M 410.050781 190 C 426.617188 190 440.050781 203.433594 440.050781 220 C 440.050781 236.566406 426.617188 250 410.050781 250 C 393.484375 250 380.050781 236.566406 380.050781 220 C 380.050781 203.433594 393.484375 190 410.050781 190 Z M 410.050781 190 " style="" fill="#ffffff" data-original="#000000" class=""/>
<path d="M 170.050781 170 C 142.4375 170 120.050781 192.386719 120.050781 220 C 120.050781 247.613281 142.4375 270 170.050781 270 C 197.664062 270 220.050781 247.613281 220.050781 220 C 220.015625 192.398438 197.652344 170.035156 170.050781 170 Z M 170.050781 250 C 153.484375 250 140.050781 236.566406 140.050781 220 C 140.050781 203.433594 153.484375 190 170.050781 190 C 186.617188 190 200.050781 203.433594 200.050781 220 C 200.050781 236.566406 186.617188 250 170.050781 250 Z M 170.050781 250 " style="" fill="#ffffff" data-original="#000000" class=""/>
</g>
</g></svg>
